<?xml version="1.0" encoding="UTF-8" standalone="no"?>
<!-- Created with Inkscape (http://www.inkscape.org/) -->

<svg
   version="1.1"
   id="svg1"
   width="1113.1866"
   height="704.67999"
   viewBox="0 0 1113.1866 704.67999"
   sodipodi:docname="cryptoScoresVector-02.eps"
   xmlns:inkscape="http://www.inkscape.org/namespaces/inkscape"
   xmlns:sodipodi="http://sodipodi.sourceforge.net/DTD/sodipodi-0.dtd"
   xmlns="http://www.w3.org/2000/svg"
   xmlns:svg="http://www.w3.org/2000/svg">
  <defs
     id="defs1">
    <linearGradient
       x1="0"
       y1="0"
       x2="1"
       y2="0"
       gradientUnits="userSpaceOnUse"
       gradientTransform="matrix(8149.78,2785.83,2785.83,-8149.78,86.2488,1886.75)"
       spreadMethod="pad"
       id="linearGradient5">
      <stop
         style="stop-opacity:1;stop-color:#53b3e8"
         offset="0"
         id="stop2" />
      <stop
         style="stop-opacity:1;stop-color:#53b3e8"
         offset="0.00446915"
         id="stop3" />
      <stop
         style="stop-opacity:1;stop-color:#3766b9"
         offset="0.505587"
         id="stop4" />
      <stop
         style="stop-opacity:1;stop-color:#53b3e8"
         offset="1"
         id="stop5" />
    </linearGradient>
    <clipPath
       clipPathUnits="userSpaceOnUse"
       id="clipPath5">
      <path
         d="m 2804.21,3209.63 -170.69,-170.69 c 110.23,-162.08 174.68,-357.96 174.68,-568.37 0,-558.96 -454.8,-1013.75 -1013.76,-1013.75 -559.11,0 -1013.905,454.79 -1013.905,1013.75 0,559.12 454.795,1013.91 1013.905,1013.91 210.41,0 406.14,-64.45 568.37,-174.68 l 170.85,170.85 4.47,76.89 c -211.53,145.16 -467.71,230.03 -743.69,230.03 -727.41,0 -1316.995,-589.59 -1316.995,-1317 0,-727.25 589.585,-1316.84 1316.995,-1316.84 727.26,0 1316.84,589.59 1316.84,1316.84 0,275.81 -84.86,532 -230.02,743.52 z"
         id="path5" />
    </clipPath>
    <linearGradient
       x1="0"
       y1="0"
       x2="1"
       y2="0"
       gradientUnits="userSpaceOnUse"
       gradientTransform="matrix(8149.78,2785.83,2785.83,-8149.78,86.2512,1886.74)"
       spreadMethod="pad"
       id="linearGradient9">
      <stop
         style="stop-opacity:1;stop-color:#53b3e8"
         offset="0"
         id="stop6" />
      <stop
         style="stop-opacity:1;stop-color:#53b3e8"
         offset="0.00446915"
         id="stop7" />
      <stop
         style="stop-opacity:1;stop-color:#3766b9"
         offset="0.505587"
         id="stop8" />
      <stop
         style="stop-opacity:1;stop-color:#53b3e8"
         offset="1"
         id="stop9" />
    </linearGradient>
    <clipPath
       clipPathUnits="userSpaceOnUse"
       id="clipPath9">
      <path
         d="m 1794.48,2936.05 c 57.91,0 113.26,-10.68 164.47,-30.14 l 226.52,226.51 c -114.54,67.8 -248.22,106.72 -390.99,106.72 -424.48,0 -768.57,-344.08 -768.57,-768.57 0,-424.32 344.09,-768.4 768.57,-768.4 257.79,0 485.9,126.97 625.16,321.75 l -241.35,183.93 c -83.91,-122.2 -224.61,-202.59 -383.81,-202.59 -256.67,0 -465.48,208.81 -465.48,465.31 0,256.67 208.81,465.48 465.48,465.48 z"
         id="path9" />
    </clipPath>
    <linearGradient
       x1="0"
       y1="0"
       x2="1"
       y2="0"
       gradientUnits="userSpaceOnUse"
       gradientTransform="matrix(8149.78,2785.83,2785.83,-8149.78,-69.9622,2343.74)"
       spreadMethod="pad"
       id="linearGradient13">
      <stop
         style="stop-opacity:1;stop-color:#53b3e8"
         offset="0"
         id="stop10" />
      <stop
         style="stop-opacity:1;stop-color:#53b3e8"
         offset="0.00446915"
         id="stop11" />
      <stop
         style="stop-opacity:1;stop-color:#3766b9"
         offset="0.505587"
         id="stop12" />
      <stop
         style="stop-opacity:1;stop-color:#53b3e8"
         offset="1"
         id="stop13" />
    </linearGradient>
    <clipPath
       clipPathUnits="userSpaceOnUse"
       id="clipPath13">
      <path
         d="m 3061.32,4131.38 -418.42,-417.94 -12.93,-224.92 -2.87,-49.77 -187.11,-186.96 -174.04,-174.2 -217.43,-217.26 -201.22,-201.22 -1.65,0.57 c -16.38,4.38 -33.4,6.8 -51.24,6.8 -61.45,0 -116.42,-28.37 -152.25,-72.8 -8.11,-9.89 -15.24,-20.59 -21.08,-32.1 -14.43,-27.08 -22.54,-58.05 -22.54,-90.96 0,-108.15 87.72,-195.71 195.87,-195.71 32.92,0 63.72,8.11 90.96,22.38 10.87,5.67 21.08,12.32 30.65,19.94 45.23,35.83 74.1,91.29 74.1,153.39 0,17.83 -2.44,35.02 -6.81,51.4 l -0.57,1.65 779.48,779.48 50.25,2.88 224.6,13.24 417.94,418.42 -371.52,22.17 z"
         id="path13" />
    </clipPath>
    <linearGradient
       x1="0"
       y1="0"
       x2="1"
       y2="0"
       gradientUnits="userSpaceOnUse"
       gradientTransform="matrix(8149.78,2785.83,2785.83,-8149.78,120.489,1786.58)"
       spreadMethod="pad"
       id="linearGradient17">
      <stop
         style="stop-opacity:1;stop-color:#53b3e8"
         offset="0"
         id="stop14" />
      <stop
         style="stop-opacity:1;stop-color:#53b3e8"
         offset="0.00446915"
         id="stop15" />
      <stop
         style="stop-opacity:1;stop-color:#3766b9"
         offset="0.505587"
         id="stop16" />
      <stop
         style="stop-opacity:1;stop-color:#53b3e8"
         offset="1"
         id="stop17" />
    </linearGradient>
    <clipPath
       clipPathUnits="userSpaceOnUse"
       id="clipPath17">
      <path
         d="m 4548.8,2928.78 -171.25,61.77 c -34.63,-56.14 -73.95,-95.93 -117.93,-119.31 -43.99,-23.42 -94.53,-35.1 -151.59,-35.1 -57.09,0 -107.88,13.33 -152.32,40 -44.46,26.67 -79.54,63.87 -105.28,111.61 -25.75,47.73 -38.6,102.47 -38.6,164.24 0,62.68 12.85,117.67 38.6,164.94 25.74,47.25 60.82,84.23 105.28,110.9 44.44,26.67 95.23,40 152.32,40 57.06,0 107.6,-11.71 151.59,-35.09 43.98,-23.4 83.3,-63.17 117.93,-119.32 l 171.25,61.77 c -40.24,85.15 -95.93,151.61 -167.05,199.34 -71.13,47.73 -162.37,71.59 -273.72,71.59 -70.19,0 -134.77,-12.18 -193.73,-36.5 -58.96,-24.34 -110.2,-58.51 -153.71,-102.48 -43.52,-44 -77.2,-96.15 -101.07,-156.52 -23.87,-60.36 -35.8,-126.59 -35.8,-198.63 0,-95.47 19.88,-180.38 59.67,-254.79 39.75,-74.4 95.91,-132.89 168.44,-175.47 72.52,-42.6 157.93,-63.87 256.2,-63.87 111.35,0 202.59,23.87 273.72,71.58 71.12,47.74 126.81,114.18 167.05,199.34 z"
         id="path17" />
    </clipPath>
    <linearGradient
       x1="0"
       y1="0"
       x2="1"
       y2="0"
       gradientUnits="userSpaceOnUse"
       gradientTransform="matrix(8149.78,2785.83,2785.83,-8149.78,227.257,1474.24)"
       spreadMethod="pad"
       id="linearGradient21">
      <stop
         style="stop-opacity:1;stop-color:#53b3e8"
         offset="0"
         id="stop18" />
      <stop
         style="stop-opacity:1;stop-color:#53b3e8"
         offset="0.00446915"
         id="stop19" />
      <stop
         style="stop-opacity:1;stop-color:#3766b9"
         offset="0.505587"
         id="stop20" />
      <stop
         style="stop-opacity:1;stop-color:#53b3e8"
         offset="1"
         id="stop21" />
    </linearGradient>
    <clipPath
       clipPathUnits="userSpaceOnUse"
       id="clipPath21">
      <path
         d="m 4835.17,3143.69 c 9.1,9.48 19.34,17.68 30.88,24.44 32.76,19.17 79.54,28.78 140.39,28.78 h 44.91 v 167.05 c -6.56,4.67 -15.92,7.94 -28.07,9.83 -12.17,1.85 -25.75,2.8 -40.71,2.8 -29.97,0 -58.74,-7.26 -86.33,-21.76 -27.62,-14.52 -51.94,-31.58 -73,-51.24 -5.92,-5.52 -11.3,-10.89 -16.37,-16.19 l -18.03,73.75 H 4651.27 V 2674.7 h 183.9 z"
         id="path21" />
    </clipPath>
    <linearGradient
       x1="0"
       y1="0"
       x2="1"
       y2="0"
       gradientUnits="userSpaceOnUse"
       gradientTransform="matrix(8149.78,2785.83,2785.83,-8149.78,320.649,1201.03)"
       spreadMethod="pad"
       id="linearGradient25">
      <stop
         style="stop-opacity:1;stop-color:#53b3e8"
         offset="0"
         id="stop22" />
      <stop
         style="stop-opacity:1;stop-color:#53b3e8"
         offset="0.00446915"
         id="stop23" />
      <stop
         style="stop-opacity:1;stop-color:#3766b9"
         offset="0.505587"
         id="stop24" />
      <stop
         style="stop-opacity:1;stop-color:#53b3e8"
         offset="1"
         id="stop25" />
    </linearGradient>
    <clipPath
       clipPathUnits="userSpaceOnUse"
       id="clipPath25">
      <path
         d="m 5209.97,2407.99 h 188.1 l 419.72,953.16 h -188.1 l -174.48,-396.23 -173.66,396.23 h -188.11 l 267.77,-609.69 z"
         id="path25" />
    </clipPath>
    <linearGradient
       x1="0"
       y1="0"
       x2="1"
       y2="0"
       gradientUnits="userSpaceOnUse"
       gradientTransform="matrix(8149.78,2785.83,2785.83,-8149.78,397.465,976.31)"
       spreadMethod="pad"
       id="linearGradient29">
      <stop
         style="stop-opacity:1;stop-color:#53b3e8"
         offset="0"
         id="stop26" />
      <stop
         style="stop-opacity:1;stop-color:#53b3e8"
         offset="0.00446915"
         id="stop27" />
      <stop
         style="stop-opacity:1;stop-color:#3766b9"
         offset="0.505587"
         id="stop28" />
      <stop
         style="stop-opacity:1;stop-color:#53b3e8"
         offset="1"
         id="stop29" />
    </linearGradient>
    <clipPath
       clipPathUnits="userSpaceOnUse"
       id="clipPath29">
      <path
         d="m 6108.47,3155.44 c 30.79,35.09 69.55,52.64 116.45,52.64 46.74,0 85.35,-17.71 115.81,-53.28 30.47,-35.57 45.63,-81.36 45.63,-137.51 0,-56.15 -15.16,-101.77 -45.63,-136.86 -30.46,-35.1 -69.07,-52.65 -115.81,-52.65 -46.9,0 -85.66,17.55 -116.45,52.65 -30.94,35.09 -46.42,80.71 -46.42,136.86 0,56.95 15.48,103.05 46.42,138.15 z m -36.53,-436.29 c 7.98,-6.54 16.43,-12.92 25.21,-18.5 44.98,-28.56 97.78,-42.75 158.72,-42.75 62.69,0 117.88,15.15 165.58,45.62 47.7,30.31 84.86,72.74 111.67,126.98 26.64,54.23 39.87,116.61 39.87,186.79 0,70.99 -13.23,133.52 -39.87,187.28 -26.81,53.92 -63.65,96.03 -111.03,126.34 -47.22,30.47 -102.25,45.62 -164.94,45.62 -59.82,0 -112.47,-14.67 -157.93,-44.18 -19.46,-12.6 -37.01,-27.6 -52.8,-44.67 l -20.9,73.54 h -137.51 v -953.29 h 183.93 z"
         id="path29" />
    </clipPath>
    <linearGradient
       x1="0"
       y1="0"
       x2="1"
       y2="0"
       gradientUnits="userSpaceOnUse"
       gradientTransform="matrix(8149.78,2785.83,2785.83,-8149.78,428.982,884.11)"
       spreadMethod="pad"
       id="linearGradient33">
      <stop
         style="stop-opacity:1;stop-color:#53b3e8"
         offset="0"
         id="stop30" />
      <stop
         style="stop-opacity:1;stop-color:#53b3e8"
         offset="0.00446915"
         id="stop31" />
      <stop
         style="stop-opacity:1;stop-color:#3766b9"
         offset="0.505587"
         id="stop32" />
      <stop
         style="stop-opacity:1;stop-color:#53b3e8"
         offset="1"
         id="stop33" />
    </linearGradient>
    <clipPath
       clipPathUnits="userSpaceOnUse"
       id="clipPath33">
      <path
         d="m 6912.78,3522.59 h -148.8 l -37.9,-161.44 H 6622.2 v -169.86 h 106.68 V 2895.1 c 0,-81.42 20.36,-140.62 61.07,-177.59 40.7,-36.97 96.16,-55.44 166.34,-55.44 22.46,0 42.12,1.4 58.97,4.2 16.83,2.82 32.74,7.03 47.73,12.64 v 171.26 c -9.37,-2.8 -20.15,-5.38 -32.3,-7.72 -12.16,-2.34 -25.75,-3.51 -40.7,-3.51 -22.47,0 -40.96,6.78 -55.45,20.36 -14.51,13.56 -21.76,35.32 -21.76,65.28 v 266.71 h 150.21 v 169.86 h -150.21 z"
         id="path33" />
    </clipPath>
    <linearGradient
       x1="0"
       y1="0"
       x2="1"
       y2="0"
       gradientUnits="userSpaceOnUse"
       gradientTransform="matrix(8149.78,2785.83,2785.83,-8149.78,517.317,625.69)"
       spreadMethod="pad"
       id="linearGradient37">
      <stop
         style="stop-opacity:1;stop-color:#53b3e8"
         offset="0"
         id="stop34" />
      <stop
         style="stop-opacity:1;stop-color:#53b3e8"
         offset="0.00446915"
         id="stop35" />
      <stop
         style="stop-opacity:1;stop-color:#3766b9"
         offset="0.505587"
         id="stop36" />
      <stop
         style="stop-opacity:1;stop-color:#53b3e8"
         offset="1"
         id="stop37" />
    </linearGradient>
    <clipPath
       clipPathUnits="userSpaceOnUse"
       id="clipPath37">
      <path
         d="m 7637.16,2886.01 c -31.91,-33.34 -73.07,-49.93 -123.63,-49.93 -50.41,0 -91.41,16.91 -122.83,50.57 -31.27,33.66 -46.9,77.68 -46.9,131.92 0,54.4 15.63,98.11 46.9,131.28 31.42,33.19 72.42,49.94 122.83,49.94 50.56,0 91.72,-16.91 123.63,-50.57 31.74,-33.66 47.69,-77.69 47.69,-131.93 0,-54.39 -15.95,-98.1 -47.69,-131.28 z m 189.5,318.56 c -29.98,53.92 -71.94,96.03 -125.7,126.34 -53.76,30.47 -116.29,45.62 -187.43,45.62 -71.15,0 -133.52,-15.15 -187.28,-45.62 -53.92,-30.31 -95.71,-72.42 -125.7,-126.34 -29.99,-53.76 -44.99,-116.29 -44.99,-187.28 0,-71.14 15,-133.67 44.99,-187.43 29.99,-53.92 71.78,-96.03 125.7,-126.34 53.76,-30.47 116.13,-45.62 187.28,-45.62 71.14,0 133.67,15.15 187.43,45.62 53.76,30.31 95.72,72.42 125.7,126.34 29.84,53.76 44.83,116.29 44.83,187.43 0,70.99 -14.99,133.52 -44.83,187.28 z"
         id="path37" />
    </clipPath>
    <linearGradient
       x1="0"
       y1="0"
       x2="1"
       y2="0"
       gradientUnits="userSpaceOnUse"
       gradientTransform="matrix(8149.78,2785.83,2785.83,-8149.78,470.484,762.69)"
       spreadMethod="pad"
       id="linearGradient41">
      <stop
         style="stop-opacity:1;stop-color:#53b3e8"
         offset="0"
         id="stop38" />
      <stop
         style="stop-opacity:1;stop-color:#53b3e8"
         offset="0.00446915"
         id="stop39" />
      <stop
         style="stop-opacity:1;stop-color:#3766b9"
         offset="0.505587"
         id="stop40" />
      <stop
         style="stop-opacity:1;stop-color:#53b3e8"
         offset="1"
         id="stop41" />
    </linearGradient>
    <clipPath
       clipPathUnits="userSpaceOnUse"
       id="clipPath41">
      <path
         d="m 4213.31,1995.4 c -46.81,27.14 -109.5,50.05 -188.11,68.78 -69.26,16.86 -115.81,35.31 -139.67,55.46 -23.87,20.11 -35.8,44.21 -35.8,72.3 0,31.79 11.93,56.61 35.8,74.4 23.86,17.76 58.24,26.67 103.17,26.67 34.62,0 68.55,-7.26 101.77,-21.77 33.22,-14.52 62.92,-38.6 89.14,-72.29 l 146,99.66 c -33.69,51.46 -77.21,92.41 -130.56,122.84 -53.34,30.39 -119.31,45.63 -197.92,45.63 -68.33,0 -127.29,-12.18 -176.87,-36.5 -49.62,-24.35 -87.74,-57.35 -114.43,-98.97 -26.67,-41.66 -40,-90.09 -40,-145.3 0,-45.86 8.89,-87.73 26.67,-125.64 17.77,-37.9 48.43,-70.88 91.96,-98.96 43.51,-28.08 103.64,-51.47 180.38,-70.18 51.45,-11.23 90.75,-23.87 117.92,-37.9 27.12,-14.04 46.08,-28.79 56.85,-44.23 10.75,-15.44 16.14,-33.93 16.14,-55.44 0,-33.7 -12.17,-60.62 -36.5,-80.73 -24.34,-20.13 -59.9,-30.17 -106.68,-30.17 -51.49,0 -96.87,12.15 -136.17,36.5 -39.3,24.31 -73.48,61.28 -102.47,110.9 l -146,-88.44 c 26.18,-54.29 58.26,-98.27 96.16,-131.96 37.9,-33.7 80.71,-58.5 128.44,-74.4 47.73,-15.91 98.27,-23.87 151.61,-23.87 69.25,0 129.36,12.63 180.38,37.9 51,25.27 90.31,59.43 117.93,102.47 27.58,43.05 41.4,91.71 41.4,146 0,54.26 -10.06,100.59 -30.17,138.98 -20.14,38.36 -53.59,71.11 -100.37,98.26 z"
         id="path41" />
    </clipPath>
    <linearGradient
       x1="0"
       y1="0"
       x2="1"
       y2="0"
       gradientUnits="userSpaceOnUse"
       gradientTransform="matrix(8149.78,2785.83,2785.83,-8149.78,589.315,415.06)"
       spreadMethod="pad"
       id="linearGradient45">
      <stop
         style="stop-opacity:1;stop-color:#53b3e8"
         offset="0"
         id="stop42" />
      <stop
         style="stop-opacity:1;stop-color:#53b3e8"
         offset="0.00446915"
         id="stop43" />
      <stop
         style="stop-opacity:1;stop-color:#3766b9"
         offset="0.505587"
         id="stop44" />
      <stop
         style="stop-opacity:1;stop-color:#53b3e8"
         offset="1"
         id="stop45" />
    </linearGradient>
    <clipPath
       clipPathUnits="userSpaceOnUse"
       id="clipPath45">
      <path
         d="m 4750.94,2019.27 c 35.55,0 65.27,-8.91 89.14,-26.67 23.86,-17.79 42.81,-42.61 56.84,-74.4 l 168.47,73 c -24.35,62.68 -64.36,112.52 -120.03,149.5 -55.7,36.95 -120.02,55.44 -193.02,55.44 -70.19,0 -131.49,-15.22 -183.9,-45.63 -52.42,-30.42 -92.89,-72.76 -121.43,-127.04 -28.55,-54.29 -42.81,-116.05 -42.81,-185.3 0,-70.18 14.26,-132.43 42.81,-186.69 28.54,-54.29 69.01,-96.86 121.43,-127.75 52.41,-30.88 113.71,-46.32 183.9,-46.32 72.05,0 136.17,18.95 192.31,56.85 56.16,37.9 96.39,87.73 120.74,149.5 l -168.47,73 c -14.03,-31.83 -32.98,-56.39 -56.84,-73.7 -23.87,-17.32 -53.59,-25.97 -89.14,-25.97 -45.86,0 -84.23,15.91 -115.11,47.73 -30.89,31.8 -46.33,76.26 -46.33,133.35 0,56.16 15.44,100.37 46.33,132.67 30.88,32.29 69.25,48.43 115.11,48.43 z"
         id="path45" />
    </clipPath>
    <linearGradient
       x1="0"
       y1="0"
       x2="1"
       y2="0"
       gradientUnits="userSpaceOnUse"
       gradientTransform="matrix(8149.78,2785.83,2785.83,-8149.78,664.628,194.74)"
       spreadMethod="pad"
       id="linearGradient49">
      <stop
         style="stop-opacity:1;stop-color:#53b3e8"
         offset="0"
         id="stop46" />
      <stop
         style="stop-opacity:1;stop-color:#53b3e8"
         offset="0.00446915"
         id="stop47" />
      <stop
         style="stop-opacity:1;stop-color:#3766b9"
         offset="0.505587"
         id="stop48" />
      <stop
         style="stop-opacity:1;stop-color:#53b3e8"
         offset="1"
         id="stop49" />
    </linearGradient>
    <clipPath
       clipPathUnits="userSpaceOnUse"
       id="clipPath49">
      <path
         d="m 5591.79,1705.56 c -31.75,-33.34 -72.9,-49.93 -123.47,-49.93 -50.57,0 -91.57,16.91 -122.83,50.57 -31.43,33.66 -47.06,77.68 -47.06,131.92 0,54.4 15.63,98.11 47.06,131.29 31.26,33.18 72.26,49.93 122.83,49.93 50.57,0 91.72,-16.91 123.47,-50.57 31.9,-33.66 47.69,-77.69 47.69,-131.93 0,-54.39 -15.79,-98.1 -47.69,-131.28 z m 63.96,444.9 c -53.91,30.47 -116.28,45.62 -187.43,45.62 -71.15,0 -133.68,-15.15 -187.44,-45.62 -53.76,-30.31 -95.71,-72.42 -125.7,-126.34 -29.83,-53.76 -44.83,-116.29 -44.83,-187.28 0,-71.14 15,-133.67 44.83,-187.43 29.99,-53.92 71.94,-96.03 125.7,-126.34 53.76,-30.47 116.29,-45.62 187.44,-45.62 71.15,0 133.52,15.15 187.43,45.62 53.76,30.31 95.56,72.42 125.55,126.34 29.99,53.76 44.98,116.29 44.98,187.43 0,70.99 -14.99,133.52 -44.98,187.28 -29.99,53.92 -71.79,96.03 -125.55,126.34 z"
         id="path49" />
    </clipPath>
    <linearGradient
       x1="0"
       y1="0"
       x2="1"
       y2="0"
       gradientUnits="userSpaceOnUse"
       gradientTransform="matrix(8149.78,2785.83,2785.83,-8149.78,722.938,24.1602)"
       spreadMethod="pad"
       id="linearGradient53">
      <stop
         style="stop-opacity:1;stop-color:#53b3e8"
         offset="0"
         id="stop50" />
      <stop
         style="stop-opacity:1;stop-color:#53b3e8"
         offset="0.00446915"
         id="stop51" />
      <stop
         style="stop-opacity:1;stop-color:#3766b9"
         offset="0.505587"
         id="stop52" />
      <stop
         style="stop-opacity:1;stop-color:#53b3e8"
         offset="1"
         id="stop53" />
    </linearGradient>
    <clipPath
       clipPathUnits="userSpaceOnUse"
       id="clipPath53">
      <path
         d="m 6267.05,2196.14 c -29.97,0 -58.74,-7.26 -86.33,-21.76 -27.62,-14.52 -51.94,-31.58 -73,-51.24 -5.92,-5.52 -11.3,-10.89 -16.37,-16.19 l -18.03,73.75 h -137.57 v -686.45 h 183.9 v 468.99 c 9.1,9.48 19.34,17.68 30.88,24.44 32.76,19.17 79.54,28.78 140.39,28.78 h 44.91 v 167.05 c -6.56,4.67 -15.92,7.94 -28.07,9.83 -12.17,1.85 -25.75,2.8 -40.71,2.8 z"
         id="path53" />
    </clipPath>
    <linearGradient
       x1="0"
       y1="0"
       x2="1"
       y2="0"
       gradientUnits="userSpaceOnUse"
       gradientTransform="matrix(8149.78,2785.83,2785.83,-8149.78,794.243,-184.44)"
       spreadMethod="pad"
       id="linearGradient57">
      <stop
         style="stop-opacity:1;stop-color:#53b3e8"
         offset="0"
         id="stop54" />
      <stop
         style="stop-opacity:1;stop-color:#53b3e8"
         offset="0.00446915"
         id="stop55" />
      <stop
         style="stop-opacity:1;stop-color:#3766b9"
         offset="0.505587"
         id="stop56" />
      <stop
         style="stop-opacity:1;stop-color:#53b3e8"
         offset="1"
         id="stop57" />
    </linearGradient>
    <clipPath
       clipPathUnits="userSpaceOnUse"
       id="clipPath57">
      <path
         d="m 6541.89,1921.07 c 6.22,33.18 20.26,61.1 42.43,83.43 30.79,31.43 71.63,47.06 122.03,47.06 58.07,0 100.98,-18.19 128.58,-54.72 16.27,-21.53 27.59,-46.89 34.29,-75.77 z m 344.88,228.75 c -51.04,30.95 -111.18,46.26 -180.42,46.26 -68.27,0 -128.09,-15.15 -179.62,-45.62 -51.52,-30.31 -91.24,-72.42 -119.32,-126.34 -28.07,-53.76 -42.11,-116.29 -42.11,-187.28 0,-72.1 14.04,-134.79 42.11,-188.23 28.08,-53.28 67.8,-94.75 119.32,-124.11 51.53,-29.51 111.35,-44.34 179.62,-44.34 74.98,0 138.79,15.31 191.75,45.62 52.8,30.47 94.75,74.18 125.54,131.29 l -127.77,73.06 c -19.63,-29.04 -43.08,-53.44 -70.2,-73.06 -27.11,-19.63 -64.44,-29.51 -112.3,-29.51 -54.23,0 -96.98,15.79 -128.41,47.05 -27.28,27.28 -42.59,63.49 -46.1,108.8 h 504.4 c 1.91,6.54 3.03,14.83 3.51,24.56 0.48,9.89 0.8,19.94 0.8,30.15 0,69.23 -14.04,130.81 -42.12,184.73 -28.07,53.75 -67.63,96.03 -118.68,126.97 z"
         id="path57" />
    </clipPath>
    <linearGradient
       x1="0"
       y1="0"
       x2="1"
       y2="0"
       gradientUnits="userSpaceOnUse"
       gradientTransform="matrix(8149.78,2785.83,2785.83,-8149.78,865.494,-392.88)"
       spreadMethod="pad"
       id="linearGradient61">
      <stop
         style="stop-opacity:1;stop-color:#53b3e8"
         offset="0"
         id="stop58" />
      <stop
         style="stop-opacity:1;stop-color:#53b3e8"
         offset="0.00446915"
         id="stop59" />
      <stop
         style="stop-opacity:1;stop-color:#3766b9"
         offset="0.505587"
         id="stop60" />
      <stop
         style="stop-opacity:1;stop-color:#53b3e8"
         offset="1"
         id="stop61" />
    </linearGradient>
    <clipPath
       clipPathUnits="userSpaceOnUse"
       id="clipPath61">
      <path
         d="m 7317.03,2030.5 c 15.91,9.35 34.17,14.04 54.76,14.04 37.42,0 70.18,-7.03 98.27,-21.07 28.07,-14.03 50.99,-30.42 68.78,-49.13 l 119.32,99.67 c -27.15,34.61 -62.95,64.09 -107.39,88.44 -44.46,24.33 -98.05,36.5 -160.74,36.5 -53.34,0 -99.45,-9.83 -138.27,-29.48 -38.83,-19.66 -68.56,-46.11 -89.14,-79.31 -20.59,-33.24 -30.87,-69.97 -30.87,-110.2 0,-58.96 17.76,-104.59 53.34,-136.87 35.55,-32.29 88.9,-57.79 160.03,-76.5 38.36,-9.36 67.59,-18.26 87.74,-26.67 20.11,-8.43 33.9,-17.09 41.4,-25.97 7.48,-8.91 11.24,-18.96 11.24,-30.19 0,-16.84 -7.03,-30.87 -21.07,-42.11 -14.03,-11.23 -32.76,-16.85 -56.14,-16.85 -34.63,0 -65.75,7.24 -93.36,21.76 -27.6,14.5 -56.39,38.6 -86.33,72.3 l -112.31,-98.27 c 36.5,-53.34 78.38,-90.79 125.64,-112.3 47.25,-21.51 97.08,-32.28 149.51,-32.28 49.6,0 94.27,9.11 134.06,27.37 39.77,18.24 71.35,43.98 94.76,77.21 23.39,33.21 35.08,72.3 35.08,117.21 0,56.16 -18.24,101.07 -54.74,134.76 -36.5,33.7 -96.86,60.37 -181.08,80.01 -49.61,12.15 -83.06,23.87 -100.37,35.1 -17.34,11.23 -25.97,25.27 -25.97,42.12 0,17.76 7.93,31.35 23.85,40.71 z"
         id="path61" />
    </clipPath>
  </defs>
  <sodipodi:namedview
     id="namedview1"
     pagecolor="#ffffff"
     bordercolor="#000000"
     borderopacity="0.25"
     inkscape:showpageshadow="2"
     inkscape:pageopacity="0.0"
     inkscape:pagecheckerboard="0"
     inkscape:deskcolor="#d1d1d1">
    <inkscape:page
       x="0"
       y="0"
       inkscape:label="1"
       id="page1"
       width="1113.1866"
       height="704.67999"
       margin="0"
       bleed="0" />
  </sodipodi:namedview>
  <g
     id="g1"
     inkscape:groupmode="layer"
     inkscape:label="1">
    <g
       id="group-R5">
      <path
         id="path2"
         d="m 2804.21,3209.63 -170.69,-170.69 c 110.23,-162.08 174.68,-357.96 174.68,-568.37 0,-558.96 -454.8,-1013.75 -1013.76,-1013.75 -559.11,0 -1013.905,454.79 -1013.905,1013.75 0,559.12 454.795,1013.91 1013.905,1013.91 210.41,0 406.14,-64.45 568.37,-174.68 l 170.85,170.85 4.47,76.89 c -211.53,145.16 -467.71,230.03 -743.69,230.03 -727.41,0 -1316.995,-589.59 -1316.995,-1317 0,-727.25 589.585,-1316.84 1316.995,-1316.84 727.26,0 1316.84,589.59 1316.84,1316.84 0,275.81 -84.86,532 -230.02,743.52 l -77.05,-4.46"
         style="fill:url(#linearGradient5);fill-opacity:1;fill-rule:nonzero;stroke:none"
         transform="matrix(0.13333333,0,0,-0.13333333,0,704.68)"
         clip-path="url(#clipPath5)" />
      <path
         id="path6"
         d="m 1794.48,2936.05 c 57.91,0 113.26,-10.68 164.47,-30.14 l 226.52,226.51 c -114.54,67.8 -248.22,106.72 -390.99,106.72 -424.48,0 -768.57,-344.08 -768.57,-768.57 0,-424.32 344.09,-768.4 768.57,-768.4 257.79,0 485.9,126.97 625.16,321.75 l -241.35,183.93 c -83.91,-122.2 -224.61,-202.59 -383.81,-202.59 -256.67,0 -465.48,208.81 -465.48,465.31 0,256.67 208.81,465.48 465.48,465.48"
         style="fill:url(#linearGradient9);fill-opacity:1;fill-rule:nonzero;stroke:none"
         transform="matrix(0.13333333,0,0,-0.13333333,0,704.68)"
         clip-path="url(#clipPath9)" />
      <path
         id="path10"
         d="m 3061.32,4131.38 -418.42,-417.94 -12.93,-224.92 -2.87,-49.77 -187.11,-186.96 -174.04,-174.2 -217.43,-217.26 -201.22,-201.22 -1.65,0.57 c -16.38,4.38 -33.4,6.8 -51.24,6.8 -61.45,0 -116.42,-28.37 -152.25,-72.8 -8.11,-9.89 -15.24,-20.59 -21.08,-32.1 -14.43,-27.08 -22.54,-58.05 -22.54,-90.96 0,-108.15 87.72,-195.71 195.87,-195.71 32.92,0 63.72,8.11 90.96,22.38 10.87,5.67 21.08,12.32 30.65,19.94 45.23,35.83 74.1,91.29 74.1,153.39 0,17.83 -2.44,35.02 -6.81,51.4 l -0.57,1.65 779.48,779.48 50.25,2.88 224.6,13.24 417.94,418.42 -371.52,22.17 -22.17,371.52"
         style="fill:url(#linearGradient13);fill-opacity:1;fill-rule:nonzero;stroke:none"
         transform="matrix(0.13333333,0,0,-0.13333333,0,704.68)"
         clip-path="url(#clipPath13)" />
      <path
         id="path14"
         d="m 4548.8,2928.78 -171.25,61.77 c -34.63,-56.14 -73.95,-95.93 -117.93,-119.31 -43.99,-23.42 -94.53,-35.1 -151.59,-35.1 -57.09,0 -107.88,13.33 -152.32,40 -44.46,26.67 -79.54,63.87 -105.28,111.61 -25.75,47.73 -38.6,102.47 -38.6,164.24 0,62.68 12.85,117.67 38.6,164.94 25.74,47.25 60.82,84.23 105.28,110.9 44.44,26.67 95.23,40 152.32,40 57.06,0 107.6,-11.71 151.59,-35.09 43.98,-23.4 83.3,-63.17 117.93,-119.32 l 171.25,61.77 c -40.24,85.15 -95.93,151.61 -167.05,199.34 -71.13,47.73 -162.37,71.59 -273.72,71.59 -70.19,0 -134.77,-12.18 -193.73,-36.5 -58.96,-24.34 -110.2,-58.51 -153.71,-102.48 -43.52,-44 -77.2,-96.15 -101.07,-156.52 -23.87,-60.36 -35.8,-126.59 -35.8,-198.63 0,-95.47 19.88,-180.38 59.67,-254.79 39.75,-74.4 95.91,-132.89 168.44,-175.47 72.52,-42.6 157.93,-63.87 256.2,-63.87 111.35,0 202.59,23.87 273.72,71.58 71.12,47.74 126.81,114.18 167.05,199.34"
         style="fill:url(#linearGradient17);fill-opacity:1;fill-rule:nonzero;stroke:none"
         transform="matrix(0.13333333,0,0,-0.13333333,0,704.68)"
         clip-path="url(#clipPath17)" />
      <path
         id="path18"
         d="m 4835.17,3143.69 c 9.1,9.48 19.34,17.68 30.88,24.44 32.76,19.17 79.54,28.78 140.39,28.78 h 44.91 v 167.05 c -6.56,4.67 -15.92,7.94 -28.07,9.83 -12.17,1.85 -25.75,2.8 -40.71,2.8 -29.97,0 -58.74,-7.26 -86.33,-21.76 -27.62,-14.52 -51.94,-31.58 -73,-51.24 -5.92,-5.52 -11.3,-10.89 -16.37,-16.19 l -18.03,73.75 H 4651.27 V 2674.7 h 183.9 v 468.99"
         style="fill:url(#linearGradient21);fill-opacity:1;fill-rule:nonzero;stroke:none"
         transform="matrix(0.13333333,0,0,-0.13333333,0,704.68)"
         clip-path="url(#clipPath21)" />
      <path
         id="path22"
         d="m 5209.97,2407.99 h 188.1 l 419.72,953.16 h -188.1 l -174.48,-396.23 -173.66,396.23 h -188.11 l 267.77,-609.69 -151.24,-343.47"
         style="fill:url(#linearGradient25);fill-opacity:1;fill-rule:nonzero;stroke:none"
         transform="matrix(0.13333333,0,0,-0.13333333,0,704.68)"
         clip-path="url(#clipPath25)" />
      <path
         id="path26"
         d="m 6108.47,3155.44 c 30.79,35.09 69.55,52.64 116.45,52.64 46.74,0 85.35,-17.71 115.81,-53.28 30.47,-35.57 45.63,-81.36 45.63,-137.51 0,-56.15 -15.16,-101.77 -45.63,-136.86 -30.46,-35.1 -69.07,-52.65 -115.81,-52.65 -46.9,0 -85.66,17.55 -116.45,52.65 -30.94,35.09 -46.42,80.71 -46.42,136.86 0,56.95 15.48,103.05 46.42,138.15 z m -36.53,-436.29 c 7.98,-6.54 16.43,-12.92 25.21,-18.5 44.98,-28.56 97.78,-42.75 158.72,-42.75 62.69,0 117.88,15.15 165.58,45.62 47.7,30.31 84.86,72.74 111.67,126.98 26.64,54.23 39.87,116.61 39.87,186.79 0,70.99 -13.23,133.52 -39.87,187.28 -26.81,53.92 -63.65,96.03 -111.03,126.34 -47.22,30.47 -102.25,45.62 -164.94,45.62 -59.82,0 -112.47,-14.67 -157.93,-44.18 -19.46,-12.6 -37.01,-27.6 -52.8,-44.67 l -20.9,73.54 h -137.51 v -953.29 h 183.93 v 311.22"
         style="fill:url(#linearGradient29);fill-opacity:1;fill-rule:nonzero;stroke:none"
         transform="matrix(0.13333333,0,0,-0.13333333,0,704.68)"
         clip-path="url(#clipPath29)" />
      <path
         id="path30"
         d="m 6912.78,3522.59 h -148.8 l -37.9,-161.44 H 6622.2 v -169.86 h 106.68 V 2895.1 c 0,-81.42 20.36,-140.62 61.07,-177.59 40.7,-36.97 96.16,-55.44 166.34,-55.44 22.46,0 42.12,1.4 58.97,4.2 16.83,2.82 32.74,7.03 47.73,12.64 v 171.26 c -9.37,-2.8 -20.15,-5.38 -32.3,-7.72 -12.16,-2.34 -25.75,-3.51 -40.7,-3.51 -22.47,0 -40.96,6.78 -55.45,20.36 -14.51,13.56 -21.76,35.32 -21.76,65.28 v 266.71 h 150.21 v 169.86 h -150.21 v 161.44"
         style="fill:url(#linearGradient33);fill-opacity:1;fill-rule:nonzero;stroke:none"
         transform="matrix(0.13333333,0,0,-0.13333333,0,704.68)"
         clip-path="url(#clipPath33)" />
      <path
         id="path34"
         d="m 7637.16,2886.01 c -31.91,-33.34 -73.07,-49.93 -123.63,-49.93 -50.41,0 -91.41,16.91 -122.83,50.57 -31.27,33.66 -46.9,77.68 -46.9,131.92 0,54.4 15.63,98.11 46.9,131.28 31.42,33.19 72.42,49.94 122.83,49.94 50.56,0 91.72,-16.91 123.63,-50.57 31.74,-33.66 47.69,-77.69 47.69,-131.93 0,-54.39 -15.95,-98.1 -47.69,-131.28 z m 189.5,318.56 c -29.98,53.92 -71.94,96.03 -125.7,126.34 -53.76,30.47 -116.29,45.62 -187.43,45.62 -71.15,0 -133.52,-15.15 -187.28,-45.62 -53.92,-30.31 -95.71,-72.42 -125.7,-126.34 -29.99,-53.76 -44.99,-116.29 -44.99,-187.28 0,-71.14 15,-133.67 44.99,-187.43 29.99,-53.92 71.78,-96.03 125.7,-126.34 53.76,-30.47 116.13,-45.62 187.28,-45.62 71.14,0 133.67,15.15 187.43,45.62 53.76,30.31 95.72,72.42 125.7,126.34 29.84,53.76 44.83,116.29 44.83,187.43 0,70.99 -14.99,133.52 -44.83,187.28"
         style="fill:url(#linearGradient37);fill-opacity:1;fill-rule:nonzero;stroke:none"
         transform="matrix(0.13333333,0,0,-0.13333333,0,704.68)"
         clip-path="url(#clipPath37)" />
      <path
         id="path38"
         d="m 4213.31,1995.4 c -46.81,27.14 -109.5,50.05 -188.11,68.78 -69.26,16.86 -115.81,35.31 -139.67,55.46 -23.87,20.11 -35.8,44.21 -35.8,72.3 0,31.79 11.93,56.61 35.8,74.4 23.86,17.76 58.24,26.67 103.17,26.67 34.62,0 68.55,-7.26 101.77,-21.77 33.22,-14.52 62.92,-38.6 89.14,-72.29 l 146,99.66 c -33.69,51.46 -77.21,92.41 -130.56,122.84 -53.34,30.39 -119.31,45.63 -197.92,45.63 -68.33,0 -127.29,-12.18 -176.87,-36.5 -49.62,-24.35 -87.74,-57.35 -114.43,-98.97 -26.67,-41.66 -40,-90.09 -40,-145.3 0,-45.86 8.89,-87.73 26.67,-125.64 17.77,-37.9 48.43,-70.88 91.96,-98.96 43.51,-28.08 103.64,-51.47 180.38,-70.18 51.45,-11.23 90.75,-23.87 117.92,-37.9 27.12,-14.04 46.08,-28.79 56.85,-44.23 10.75,-15.44 16.14,-33.93 16.14,-55.44 0,-33.7 -12.17,-60.62 -36.5,-80.73 -24.34,-20.13 -59.9,-30.17 -106.68,-30.17 -51.49,0 -96.87,12.15 -136.17,36.5 -39.3,24.31 -73.48,61.28 -102.47,110.9 l -146,-88.44 c 26.18,-54.29 58.26,-98.27 96.16,-131.96 37.9,-33.7 80.71,-58.5 128.44,-74.4 47.73,-15.91 98.27,-23.87 151.61,-23.87 69.25,0 129.36,12.63 180.38,37.9 51,25.27 90.31,59.43 117.93,102.47 27.58,43.05 41.4,91.71 41.4,146 0,54.26 -10.06,100.59 -30.17,138.98 -20.14,38.36 -53.59,71.11 -100.37,98.26"
         style="fill:url(#linearGradient41);fill-opacity:1;fill-rule:nonzero;stroke:none"
         transform="matrix(0.13333333,0,0,-0.13333333,0,704.68)"
         clip-path="url(#clipPath41)" />
      <path
         id="path42"
         d="m 4750.94,2019.27 c 35.55,0 65.27,-8.91 89.14,-26.67 23.86,-17.79 42.81,-42.61 56.84,-74.4 l 168.47,73 c -24.35,62.68 -64.36,112.52 -120.03,149.5 -55.7,36.95 -120.02,55.44 -193.02,55.44 -70.19,0 -131.49,-15.22 -183.9,-45.63 -52.42,-30.42 -92.89,-72.76 -121.43,-127.04 -28.55,-54.29 -42.81,-116.05 -42.81,-185.3 0,-70.18 14.26,-132.43 42.81,-186.69 28.54,-54.29 69.01,-96.86 121.43,-127.75 52.41,-30.88 113.71,-46.32 183.9,-46.32 72.05,0 136.17,18.95 192.31,56.85 56.16,37.9 96.39,87.73 120.74,149.5 l -168.47,73 c -14.03,-31.83 -32.98,-56.39 -56.84,-73.7 -23.87,-17.32 -53.59,-25.97 -89.14,-25.97 -45.86,0 -84.23,15.91 -115.11,47.73 -30.89,31.8 -46.33,76.26 -46.33,133.35 0,56.16 15.44,100.37 46.33,132.67 30.88,32.29 69.25,48.43 115.11,48.43"
         style="fill:url(#linearGradient45);fill-opacity:1;fill-rule:nonzero;stroke:none"
         transform="matrix(0.13333333,0,0,-0.13333333,0,704.68)"
         clip-path="url(#clipPath45)" />
      <path
         id="path46"
         d="m 5591.79,1705.56 c -31.75,-33.34 -72.9,-49.93 -123.47,-49.93 -50.57,0 -91.57,16.91 -122.83,50.57 -31.43,33.66 -47.06,77.68 -47.06,131.92 0,54.4 15.63,98.11 47.06,131.29 31.26,33.18 72.26,49.93 122.83,49.93 50.57,0 91.72,-16.91 123.47,-50.57 31.9,-33.66 47.69,-77.69 47.69,-131.93 0,-54.39 -15.79,-98.1 -47.69,-131.28 z m 63.96,444.9 c -53.91,30.47 -116.28,45.62 -187.43,45.62 -71.15,0 -133.68,-15.15 -187.44,-45.62 -53.76,-30.31 -95.71,-72.42 -125.7,-126.34 -29.83,-53.76 -44.83,-116.29 -44.83,-187.28 0,-71.14 15,-133.67 44.83,-187.43 29.99,-53.92 71.94,-96.03 125.7,-126.34 53.76,-30.47 116.29,-45.62 187.44,-45.62 71.15,0 133.52,15.15 187.43,45.62 53.76,30.31 95.56,72.42 125.55,126.34 29.99,53.76 44.98,116.29 44.98,187.43 0,70.99 -14.99,133.52 -44.98,187.28 -29.99,53.92 -71.79,96.03 -125.55,126.34"
         style="fill:url(#linearGradient49);fill-opacity:1;fill-rule:nonzero;stroke:none"
         transform="matrix(0.13333333,0,0,-0.13333333,0,704.68)"
         clip-path="url(#clipPath49)" />
      <path
         id="path50"
         d="m 6267.05,2196.14 c -29.97,0 -58.74,-7.26 -86.33,-21.76 -27.62,-14.52 -51.94,-31.58 -73,-51.24 -5.92,-5.52 -11.3,-10.89 -16.37,-16.19 l -18.03,73.75 h -137.57 v -686.45 h 183.9 v 468.99 c 9.1,9.48 19.34,17.68 30.88,24.44 32.76,19.17 79.54,28.78 140.39,28.78 h 44.91 v 167.05 c -6.56,4.67 -15.92,7.94 -28.07,9.83 -12.17,1.85 -25.75,2.8 -40.71,2.8"
         style="fill:url(#linearGradient53);fill-opacity:1;fill-rule:nonzero;stroke:none"
         transform="matrix(0.13333333,0,0,-0.13333333,0,704.68)"
         clip-path="url(#clipPath53)" />
      <path
         id="path54"
         d="m 6541.89,1921.07 c 6.22,33.18 20.26,61.1 42.43,83.43 30.79,31.43 71.63,47.06 122.03,47.06 58.07,0 100.98,-18.19 128.58,-54.72 16.27,-21.53 27.59,-46.89 34.29,-75.77 z m 344.88,228.75 c -51.04,30.95 -111.18,46.26 -180.42,46.26 -68.27,0 -128.09,-15.15 -179.62,-45.62 -51.52,-30.31 -91.24,-72.42 -119.32,-126.34 -28.07,-53.76 -42.11,-116.29 -42.11,-187.28 0,-72.1 14.04,-134.79 42.11,-188.23 28.08,-53.28 67.8,-94.75 119.32,-124.11 51.53,-29.51 111.35,-44.34 179.62,-44.34 74.98,0 138.79,15.31 191.75,45.62 52.8,30.47 94.75,74.18 125.54,131.29 l -127.77,73.06 c -19.63,-29.04 -43.08,-53.44 -70.2,-73.06 -27.11,-19.63 -64.44,-29.51 -112.3,-29.51 -54.23,0 -96.98,15.79 -128.41,47.05 -27.28,27.28 -42.59,63.49 -46.1,108.8 h 504.4 c 1.91,6.54 3.03,14.83 3.51,24.56 0.48,9.89 0.8,19.94 0.8,30.15 0,69.23 -14.04,130.81 -42.12,184.73 -28.07,53.75 -67.63,96.03 -118.68,126.97"
         style="fill:url(#linearGradient57);fill-opacity:1;fill-rule:nonzero;stroke:none"
         transform="matrix(0.13333333,0,0,-0.13333333,0,704.68)"
         clip-path="url(#clipPath57)" />
      <path
         id="path58"
         d="m 7317.03,2030.5 c 15.91,9.35 34.17,14.04 54.76,14.04 37.42,0 70.18,-7.03 98.27,-21.07 28.07,-14.03 50.99,-30.42 68.78,-49.13 l 119.32,99.67 c -27.15,34.61 -62.95,64.09 -107.39,88.44 -44.46,24.33 -98.05,36.5 -160.74,36.5 -53.34,0 -99.45,-9.83 -138.27,-29.48 -38.83,-19.66 -68.56,-46.11 -89.14,-79.31 -20.59,-33.24 -30.87,-69.97 -30.87,-110.2 0,-58.96 17.76,-104.59 53.34,-136.87 35.55,-32.29 88.9,-57.79 160.03,-76.5 38.36,-9.36 67.59,-18.26 87.74,-26.67 20.11,-8.43 33.9,-17.09 41.4,-25.97 7.48,-8.91 11.24,-18.96 11.24,-30.19 0,-16.84 -7.03,-30.87 -21.07,-42.11 -14.03,-11.23 -32.76,-16.85 -56.14,-16.85 -34.63,0 -65.75,7.24 -93.36,21.76 -27.6,14.5 -56.39,38.6 -86.33,72.3 l -112.31,-98.27 c 36.5,-53.34 78.38,-90.79 125.64,-112.3 47.25,-21.51 97.08,-32.28 149.51,-32.28 49.6,0 94.27,9.11 134.06,27.37 39.77,18.24 71.35,43.98 94.76,77.21 23.39,33.21 35.08,72.3 35.08,117.21 0,56.16 -18.24,101.07 -54.74,134.76 -36.5,33.7 -96.86,60.37 -181.08,80.01 -49.61,12.15 -83.06,23.87 -100.37,35.1 -17.34,11.23 -25.97,25.27 -25.97,42.12 0,17.76 7.93,31.35 23.85,40.71"
         style="fill:url(#linearGradient61);fill-opacity:1;fill-rule:nonzero;stroke:none"
         transform="matrix(0.13333333,0,0,-0.13333333,0,704.68)"
         clip-path="url(#clipPath61)" />
    </g>
  </g>
</svg>
